# xmcd CD database file
#
# Track frame offsets:
#	150
#	22969
#	61944
#	82231
#	104354
#	141636
#	164407
#	205769
#	233659
#	261501
#	301734
#
# Disc length: 4651 seconds
#
# Revision: 1
# Processed by: cddbd v1.5.2PL0 Copyright (c) Steve Scherf et al.
# Submitted via: CDex 1.51
#
DISCID=9712290b
DTITLE=Jane Bunnett - The World of Jane Bunnett [CD2]
DYEAR=2012
DGENRE=Jazz
TTITLE0=After Rain, Comes Sun
TTITLE1=Joyful Noise
TTITLE2=Alma de Santaigo
TTITLE3=Rendez-vous
TTITLE4=Don's Light
TTITLE5=Son de la Loma
TTITLE6=Song for Argentina
TTITLE7=Amor Por Ti
TTITLE8=Donna Lee
TTITLE9=You Don't Know What Love Is
TTITLE10=The River - El Rio
EXTD=YEAR: 2012
EXTT0=
EXTT1=
EXTT2=
EXTT3=
EXTT4=
EXTT5=
EXTT6=
EXTT7=
EXTT8=
EXTT9=
EXTT10=
PLAYORDER=
